<svg width="500" height="500" viewBox="0 0 500 500" fill="none" xmlns="http://www.w3.org/2000/svg">
<circle cx="250" cy="250" r="250" fill="#76B5FB"/>
<circle cx="250" cy="250" r="250" fill="url(#paint0_linear)"/>
<g filter="url(#filter0_d)">
<path fill-rule="evenodd" clip-rule="evenodd" d="M332.81 78.8886C325.899 77.1336 318.275 79.2403 313.268 84.9812L229.745 180.743L192.494 93.5145C190.659 89.2181 187.466 85.9182 183.63 83.9017C176.988 77.7499 166.913 76.1965 158.515 80.7559C93.5106 116.051 56.8163 183.18 57.2681 252.316C57.4325 277.478 62.5176 302.907 72.9495 327.163C89.2719 365.31 117.93 398.522 157.03 420.196C167.517 426.009 180.731 422.22 186.544 411.733C192.357 401.246 188.568 388.032 178.081 382.219C152.401 367.984 132.527 347.333 119.352 323.374C119.215 323.093 119.07 322.813 118.919 322.535C116.618 318.296 114.542 313.995 112.687 309.647C95.4831 269.321 97.2939 224.859 114.872 187.223C116.316 184.147 117.873 181.097 119.546 178.081C119.672 177.852 119.795 177.622 119.912 177.39C130.673 158.171 145.762 141.133 164.701 127.896L205.895 224.356C205.993 224.6 206.097 224.842 206.205 225.083L230.782 282.632C235.018 292.552 246.494 297.16 256.414 292.923C266.334 288.687 270.942 277.211 266.705 267.291L246.782 220.637L331.117 123.945C353.27 137.919 370.614 156.879 382.491 178.532C382.607 178.766 382.728 178.998 382.854 179.23C384.514 182.287 386.057 185.377 387.484 188.494C396.788 208.909 401.475 231.273 401.047 253.854C400.641 273.477 396.386 292.812 388.621 310.719C386.714 315.096 384.581 319.422 382.219 323.683C382.065 323.962 381.917 324.242 381.776 324.525C368.392 348.365 348.341 368.84 322.539 382.849C312.001 388.571 308.097 401.751 313.819 412.288C319.54 422.826 332.72 426.73 343.258 421.008C382.586 399.655 411.553 366.648 428.199 328.594C438.804 304.472 444.094 279.138 444.481 254.026C444.959 226.127 439.403 197.793 427.228 170.993C410.668 134.362 382.597 102.556 344.734 81.5682C340.956 79.4736 336.823 78.6257 332.81 78.8886Z" fill="#00112B"/>
</g>
<defs>
<filter id="filter0_d" x="26.014" y="78.1208" width="449.745" height="408.023" filterUnits="userSpaceOnUse" color-interpolation-filters="sRGB">
<feFlood flood-opacity="0" result="BackgroundImageFix"/>
<feColorMatrix in="SourceAlpha" type="matrix" values="0 0 0 0 0 0 0 0 0 0 0 0 0 0 0 0 0 0 127 0"/>
<feOffset dy="31.25"/>
<feGaussianBlur stdDeviation="15.625"/>
<feColorMatrix type="matrix" values="0 0 0 0 0 0 0 0 0 0 0 0 0 0 0 0 0 0 0.25 0"/>
<feBlend mode="normal" in2="BackgroundImageFix" result="effect1_dropShadow"/>
<feBlend mode="normal" in="SourceGraphic" in2="effect1_dropShadow" result="shape"/>
</filter>
<linearGradient id="paint0_linear" x1="42.9688" y1="42.9687" x2="574.219" y2="425.781" gradientUnits="userSpaceOnUse">
<stop stop-color="#69EDDF"/>
<stop offset="1" stop-color="white" stop-opacity="0"/>
</linearGradient>
</defs>
</svg>
